<svg width="103" height="169" viewBox="0 0 103 169" fill="none" xmlns="http://www.w3.org/2000/svg">
<path d="M11.52 131V37.56H22.656V90.04C22.656 93.112 22.5707 96.3973 22.4 99.896C22.3147 103.309 22.1867 106.595 22.016 109.752C21.8453 112.824 21.6747 115.427 21.504 117.56L49.92 37.56H65.28V131H54.144V78.52C54.144 75.3627 54.1867 72.0773 54.272 68.664C54.4427 65.1653 54.6133 61.88 54.784 58.808C55.04 55.6507 55.2533 53.048 55.424 51L26.88 131H11.52Z" fill="black"/>
<path d="M13.776 131V37.56H43.856C49.6587 37.56 54.6933 38.712 58.96 41.016C63.2267 43.2347 66.512 46.392 68.816 50.488C71.2053 54.584 72.4 59.448 72.4 65.08C72.4 70.6267 71.2053 75.4907 68.816 79.672C66.512 83.768 63.2267 86.968 58.96 89.272C54.6933 91.4907 49.6587 92.6 43.856 92.6H25.296V131H13.776ZM25.296 82.232H43.856C48.8907 82.232 52.9013 80.696 55.888 77.624C58.96 74.4667 60.496 70.2853 60.496 65.08C60.496 59.7893 58.96 55.608 55.888 52.536C52.9013 49.464 48.8907 47.928 43.856 47.928H25.296V82.232Z" fill="black"/>
<rect x="65" y="37" width="18" height="94" fill="white"/>
</svg>
